Coordinates
version=1
nRows=8
nColumns=63
inDegrees=yes

Units are S.I. units (second, meters, Newtons, ...)
If the header above contains a line with 'inDegrees', this indicates whether rotational values are in degrees (yes) or radians (no).

endheader
time	pelvis_tilt	pelvis_list	pelvis_rotation	pelvis_tx	pelvis_ty	pelvis_tz	hip_flexion_r	hip_adduction_r	hip_rotation_r	knee_angle_r	knee_angle_r_beta	ankle_angle_r	subtalar_angle_r	mtp_angle_r	hip_flexion_l	hip_adduction_l	hip_rotation_l	knee_angle_l	knee_angle_l_beta	ankle_angle_l	subtalar_angle_l	mtp_angle_l	L5_S1_Flex_Ext	L5_S1_Lat_Bending	L5_S1_axial_rotation	L4_L5_Flex_Ext	L4_L5_Lat_Bending	L4_L5_axial_rotation	L3_L4_Flex_Ext	L3_L4_Lat_Bending	L3_L4_axial_rotation	L2_L3_Flex_Ext	L2_L3_Lat_Bending	L2_L3_axial_rotation	L1_L2_Flex_Ext	L1_L2_Lat_Bending	L1_L2_axial_rotation	L1_T12_Flex_Ext	L1_T12_Lat_Bending	L1_T12_axial_rotation	Abs_r3	Abs_r2	Abs_r1	Abs_t1	Abs_t2	neck_flexion	neck_bending	neck_rotation	arm_flex_r	arm_add_r	arm_rot_r	elbow_flex_r	pro_sup_r	wrist_flex_r	wrist_dev_r	arm_flex_l	arm_add_l	arm_rot_l	elbow_flex_l	pro_sup_l	wrist_flex_l	wrist_dev_l
2.216667	-0.099435	-6.693386	100.532890	0.416230	0.775853	1.059447	3.451906	-0.163679	-14.173236	4.757017	0.083026	23.351085	5.971182	0.000000	9.730117	-0.817994	4.267603	14.265336	0.248977	29.271231	9.395908	0.000000	-0.065432	-0.099235	-0.662119	-0.121515	-0.131983	-0.703501	-0.107499	-0.241280	-0.703501	-0.074783	-0.241280	-0.579354	-0.060761	-0.202360	-0.537971	-0.037388	-0.153715	-0.496589	-0.467377	-1.122566	-3.682505	0.000000	0.000000	24.054121	-5.375694	-1.475072	20.480102	-1.172472	93.031102	29.050357	85.503711	-3.690406	6.063159	13.233898	-9.669244	58.394526	46.857928	65.491623	1.106879	13.513538
2.233333	-0.025911	-6.680548	100.786176	0.415827	0.775738	1.058968	3.475321	-0.128064	-14.492331	4.998497	0.087240	23.282128	5.859780	0.000000	9.703604	-0.847441	4.769975	14.317196	0.249882	29.319555	9.174309	0.000000	-0.060642	-0.089260	-0.758280	-0.112618	-0.118716	-0.805673	-0.099629	-0.217027	-0.805673	-0.069308	-0.217027	-0.663495	-0.056312	-0.182019	-0.616103	-0.034651	-0.138264	-0.568710	-0.433160	-1.009726	-4.217328	0.000000	0.000000	24.129022	-5.263706	-1.167077	20.426642	-1.137787	93.174481	29.079355	85.283276	-3.570807	6.038787	12.960553	-9.807825	57.971460	47.157118	65.738859	1.045383	13.621198
2.250000	0.048002	-6.669916	100.978669	0.415475	0.775614	1.058536	3.481703	-0.082487	-14.633940	5.173421	0.090293	23.193812	5.650424	0.000000	9.673566	-0.896085	5.109705	14.365720	0.250729	29.380032	9.072685	0.000000	-0.056341	-0.078916	-0.838497	-0.104631	-0.104958	-0.890903	-0.092563	-0.191877	-0.890903	-0.064392	-0.191877	-0.733685	-0.052318	-0.160926	-0.681279	-0.032193	-0.122241	-0.628873	-0.402440	-0.892715	-4.663470	0.000000	0.000000	24.207170	-5.167824	-0.877516	20.327030	-1.139668	93.116182	29.146994	84.766462	-3.358441	6.076098	12.695083	-9.910553	57.521605	47.411122	66.007892	1.040105	13.722307
2.266667	0.106870	-6.663025	101.067072	0.415242	0.775491	1.058174	3.476480	-0.037669	-14.529693	5.282777	0.092202	23.086840	5.309199	0.000000	9.632452	-0.939020	5.368960	14.396388	0.251264	29.420429	8.912894	0.000000	-0.052618	-0.070539	-0.886847	-0.097717	-0.093817	-0.942275	-0.086446	-0.171508	-0.942275	-0.060137	-0.171508	-0.775991	-0.048861	-0.143843	-0.720563	-0.030066	-0.109265	-0.665135	-0.375845	-0.797949	-4.932376	0.000000	0.000000	24.267722	-5.106667	-0.678315	20.197611	-1.181841	92.916298	29.253222	83.920513	-3.112717	6.166466	12.506867	-9.983201	57.228504	47.601071	66.152476	1.045610	13.787374
2.283333	0.145030	-6.659705	101.139011	0.415040	0.775376	1.057953	3.446178	-0.001647	-14.279014	5.309577	0.092670	22.968611	4.848925	0.000000	9.607017	-0.967948	5.528209	14.438795	0.252005	29.452571	8.844543	0.000000	-0.050344	-0.065233	-0.920746	-0.093495	-0.086761	-0.978292	-0.082711	-0.158609	-0.978292	-0.057539	-0.158609	-0.805653	-0.046750	-0.133024	-0.748106	-0.028767	-0.101047	-0.690559	-0.359605	-0.737934	-5.120912	0.000000	0.000000	24.310025	-5.059619	-0.570366	20.084713	-1.231822	92.680199	29.355667	83.206783	-2.877747	6.205580	12.385985	-10.034204	57.033896	47.741141	66.287771	1.076391	13.840273
2.300000	0.162022	-6.659853	101.113236	0.414959	0.775272	1.057876	3.406012	0.026091	-13.873406	5.271037	0.091997	22.858852	4.363204	0.000000	9.587326	-0.991792	5.529764	14.481859	0.252756	29.475055	8.838486	0.000000	-0.049476	-0.062530	-0.919454	-0.091882	-0.083165	-0.976920	-0.081284	-0.152036	-0.976920	-0.056546	-0.152036	-0.804522	-0.045943	-0.127512	-0.747056	-0.028270	-0.096859	-0.689590	-0.353401	-0.707355	-5.113726	0.000000	0.000000	24.338196	-5.046573	-0.564368	19.957973	-1.317237	92.243420	29.483865	82.746464	-2.637777	6.275599	12.337831	-10.036801	56.928582	47.810382	66.443545	1.154311	13.891587
2.316667	0.156485	-6.666905	101.022194	0.414978	0.775183	1.057964	3.359691	0.041572	-13.371541	5.173836	0.090300	22.763702	3.883698	0.000000	9.583568	-1.001937	5.425852	14.527236	0.253548	29.480282	8.873676	0.000000	-0.049360	-0.062964	-0.888428	-0.091666	-0.083742	-0.943955	-0.081093	-0.153090	-0.943955	-0.056413	-0.153090	-0.777374	-0.045835	-0.128396	-0.721848	-0.028204	-0.097531	-0.666321	-0.352571	-0.712260	-4.941170	0.000000	0.000000	24.349391	-5.066693	-0.672537	19.861020	-1.412669	91.807736	29.600036	82.463370	-2.461317	6.326642	12.396315	-10.008738	57.022423	47.814341	66.488269	1.219615	13.914518
2.333333	0.128495	-6.665391	100.825253	0.415133	0.775128	1.058191	3.294384	0.049179	-12.711152	5.021382	0.087640	22.665894	3.372232	0.000000	9.568856	-1.002991	5.212508	14.561605	0.254148	29.464229	8.896970	0.000000	-0.052445	-0.065757	-0.821808	-0.097395	-0.087457	-0.873171	-0.086161	-0.159882	-0.873171	-0.059939	-0.159882	-0.719082	-0.048700	-0.134092	-0.667719	-0.029967	-0.101858	-0.616356	-0.374607	-0.743858	-4.570650	0.000000	0.000000	24.354237	-5.120977	-0.874837	19.809912	-1.521104	91.413334	29.714555	82.299659	-2.338759	6.409005	12.569170	-9.950554	57.335729	47.755124	66.351402	1.249514	13.901595
